<svg xmlns="http://www.w3.org/2000/svg" version="1.1" xmlns:xlink="http://www.w3.org/1999/xlink" viewBox="0 0 200 200"><rect width="200" height="200" fill="url('#gradient')"></rect><defs><linearGradient id="gradient" gradientTransform="rotate(45 0.5 0.5)"><stop offset="0%" stop-color="#ceaa96"></stop><stop offset="100%" stop-color="#8fa983"></stop></linearGradient></defs><g><g fill="#445272" transform="matrix(3.4922319060250095,0,0,3.4922319060250095,7.808596930525525,124.8340258086979)" stroke="#c8512e" stroke-width="0.2"><path d="M8.41-3.78L8.41-3.78Q8.41-4.53 7.88-4.95Q7.34-5.37 6.01-5.82Q4.67-6.27 3.82-6.69L3.82-6.69Q1.05-8.05 1.05-10.42L1.05-10.42Q1.05-11.60 1.74-12.50Q2.43-13.41 3.69-13.91Q4.95-14.41 6.52-14.41L6.52-14.41Q8.06-14.41 9.27-13.87Q10.49-13.32 11.16-12.31Q11.84-11.30 11.84-10L11.84-10L8.42-10Q8.42-10.87 7.89-11.35Q7.35-11.83 6.45-11.83L6.45-11.83Q5.53-11.83 5.00-11.42Q4.46-11.02 4.46-10.39L4.46-10.39Q4.46-9.84 5.05-9.40Q5.63-8.96 7.11-8.48Q8.58-8.01 9.53-7.46L9.53-7.46Q11.84-6.13 11.84-3.80L11.84-3.80Q11.84-1.93 10.43-0.87Q9.02 0.20 6.57 0.20L6.57 0.20Q4.84 0.20 3.44-0.42Q2.04-1.04 1.33-2.12Q0.63-3.20 0.63-4.61L0.63-4.61L4.06-4.61Q4.06-3.47 4.65-2.92Q5.24-2.38 6.57-2.38L6.57-2.38Q7.42-2.38 7.92-2.75Q8.41-3.12 8.41-3.78ZM22.50 0L21.67-2.66L16.97-2.66L16.15 0L12.49 0L17.71-14.22L20.93-14.22L26.18 0L22.50 0ZM19.32-10.23L17.79-5.30L20.85-5.30L19.32-10.23ZM36.12 0L35.29-2.66L30.60-2.66L29.78 0L26.11 0L31.33-14.22L34.55-14.22L39.80 0L36.12 0ZM32.94-10.23L31.42-5.30L34.47-5.30L32.94-10.23ZM48.73-4.81L52.14-4.81Q52.07-3.33 51.34-2.19Q50.61-1.05 49.28-0.43Q47.96 0.20 46.26 0.20L46.26 0.20Q43.46 0.20 41.85-1.63Q40.23-3.46 40.23-6.79L40.23-6.79L40.23-7.49Q40.23-9.58 40.96-11.15Q41.69-12.71 43.06-13.57Q44.42-14.42 46.22-14.42L46.22-14.42Q48.81-14.42 50.38-13.06Q51.95-11.70 52.17-9.31L52.17-9.31L48.75-9.31Q48.71-10.61 48.10-11.17Q47.48-11.74 46.22-11.74L46.22-11.74Q44.94-11.74 44.35-10.78Q43.75-9.82 43.72-7.72L43.72-7.72L43.72-6.72Q43.72-4.44 44.29-3.47Q44.86-2.49 46.26-2.49L46.26-2.49Q47.44-2.49 48.07-3.05Q48.69-3.60 48.73-4.81L48.73-4.81Z"></path></g></g></svg>